# xmcd
# 
# Track frame offsets:
#     150
#     16977
#     41576
#     58277
#     75371
#     93457
#     106876
#     131243
#     148861
#     165255
#     178588
#     194929
# 
# Disc length: 2818
# 
# Revision: 1
# Processed by: cddbd v1.5.2PL0 Copyright (c) Steve Scherf et al.
# Submitted via: fre:ac v1.0.17
# 
DISCID=a60b000c
DTITLE=Angaleena Presley - American Middle Class
DYEAR=2014
DGENRE=Country
TTITLE0=Ain't No Man
TTITLE1=All I Ever Wanted
TTITLE2=Grocery Store
TTITLE3=American Middle Class
TTITLE4=Dry County Blues
TTITLE5=Pain Pills
TTITLE6=Life of the Party
TTITLE7=Knocked Up
TTITLE8=Better Off Red
TTITLE9=Drunk
TTITLE10=Blessing and a Curse
TTITLE11=Surrender
EXTD=YEAR: 2014
EXTT0=
EXTT1=
EXTT2=
EXTT3=
EXTT4=
EXTT5=
EXTT6=
EXTT7=
EXTT8=
EXTT9=
EXTT10=
EXTT11=
PLAYORDER=
